<svg version="1.1" id="Layer_1" xmlns="http://www.w3.org/2000/svg" xmlns:xlink="http://www.w3.org/1999/xlink" x="0px" y="0px"
	 width="100%" viewBox="0 0 334 262" enable-background="new 0 0 334 262" xml:space="preserve">
<path fill="#181818" opacity="1.000000" stroke="none" 
	d="
M200.000000,263.000000 
	C133.361084,263.000000 67.222176,263.000000 1.041629,263.000000 
	C1.041629,175.731064 1.041629,88.462112 1.041629,1.096576 
	C112.222176,1.096576 223.444458,1.096576 334.833374,1.096576 
	C334.833374,88.333076 334.833374,175.666504 334.833374,263.000000 
	C290.128906,263.000000 245.314453,263.000000 200.000000,263.000000 
M146.615509,171.967499 
	C146.647202,171.286911 146.678909,170.606339 146.805740,169.148315 
	C147.821960,166.063141 148.838181,162.977966 150.418732,160.013763 
	C150.525787,159.334732 150.632828,158.655685 150.818695,157.215775 
	C151.605042,154.840912 152.391403,152.466034 153.783890,149.966415 
	C154.121719,148.637238 154.459549,147.308060 154.850586,145.336288 
	C154.961166,144.921799 155.071747,144.507294 155.849167,143.873596 
	C155.977493,143.057892 156.105804,142.242172 156.439911,140.700989 
	C156.894989,139.004639 157.350082,137.308273 158.443130,135.397720 
	C158.564255,134.569839 158.685364,133.741943 159.059875,132.269257 
	C159.323532,131.385101 159.587189,130.500961 160.480545,129.394897 
	C160.596725,128.570862 160.712906,127.746826 161.098450,126.223701 
	C162.021362,123.356125 162.944275,120.488556 164.493561,117.394890 
	C164.602951,116.570000 164.712341,115.745117 165.029175,114.518692 
	C165.029175,114.518692 165.214142,114.106316 165.820007,113.975563 
	C166.140533,112.642700 166.461060,111.309837 166.845169,109.179436 
	C167.618668,106.481216 168.392181,103.783005 169.827942,100.845551 
	C169.883057,100.029541 169.938171,99.213524 170.179794,97.627579 
	C171.167984,94.110901 172.156174,90.594215 173.868652,87.090553 
	C174.589188,87.048714 175.309738,87.006866 176.394089,87.183319 
	C176.394089,87.183319 176.796524,87.048920 176.857574,87.855484 
	C177.673645,91.225746 178.489716,94.596008 178.799896,98.266121 
	C179.463837,99.545250 180.127777,100.824379 181.009201,102.845085 
	C181.749939,105.554520 182.490677,108.263954 182.744537,111.292496 
	C183.427505,112.562782 184.110474,113.833076 184.990143,115.507660 
	C184.990143,115.507660 185.194412,115.908188 184.926697,116.551224 
	C184.993118,117.009445 185.059540,117.467667 185.000366,118.594162 
	C185.598160,119.429878 186.195953,120.265594 187.023560,121.762337 
	C187.296127,122.653687 187.568695,123.545036 187.454788,125.018959 
	C187.924576,125.703056 188.394363,126.387154 189.112671,127.765533 
	C190.473755,131.836121 191.834839,135.906708 192.723801,140.316345 
	C193.426727,141.573059 194.129669,142.829788 195.053757,144.696152 
	C195.125504,145.121765 195.197250,145.547379 194.781281,146.246078 
	C195.246780,146.787552 195.712296,147.329041 196.565231,148.493958 
	C198.119156,153.320572 199.673065,158.147202 200.735153,163.289948 
	C201.432281,164.556259 202.129410,165.822571 203.073715,167.784729 
	C204.638275,172.338409 206.202835,176.892105 207.383835,182.033798 
	C207.862518,182.719620 208.341187,183.405426 209.074280,184.847198 
	C209.561432,185.473953 210.057556,186.651764 210.534378,186.644012 
	C216.702576,186.543549 222.868027,186.274399 229.617203,185.985657 
	C229.426712,185.636475 229.236221,185.287277 228.866211,184.312439 
	C228.827133,183.880630 228.788055,183.448807 229.163330,182.640869 
	C228.495590,181.393967 227.827850,180.147079 226.945450,178.208298 
	C226.245697,176.145630 225.545944,174.082962 225.297897,171.593735 
	C222.375793,163.248566 219.523224,154.877930 216.481812,146.576477 
	C215.737457,144.544724 214.374954,142.739456 213.114258,140.263794 
	C213.046265,139.873367 212.978287,139.482925 213.181427,138.516434 
	C212.745148,137.897339 212.308868,137.278244 211.495605,136.012909 
	C210.848206,134.151489 210.200790,132.290070 209.890259,129.638687 
	C209.162415,126.935547 208.691010,124.129013 207.651825,121.551384 
	C205.657928,116.605637 203.341873,111.789772 200.904388,106.247276 
	C200.223801,104.213844 199.543213,102.180405 199.124161,99.363411 
	C197.277847,93.893723 195.570221,88.371651 193.532028,82.974426 
	C192.351074,79.847260 190.638123,76.920990 188.945831,73.239967 
	C188.249542,71.521881 187.553253,69.803787 186.869904,67.221054 
	C185.253845,66.642403 183.660233,65.654778 182.017365,65.564613 
	C177.723373,65.328949 173.379028,65.797279 169.108658,65.402275 
	C164.424301,64.968979 162.272385,67.019890 160.871918,71.240128 
	C157.854691,80.332466 154.374741,89.270172 151.257996,98.330971 
	C149.361908,103.843170 147.789978,109.466881 145.776703,115.744614 
	C143.827621,121.149666 141.878525,126.554718 139.334351,132.285095 
	C134.971512,143.881577 130.564438,155.461792 126.290909,167.091080 
	C125.606606,168.953217 125.519806,171.034897 125.066902,173.748505 
	C124.326317,175.804260 123.585732,177.860031 122.238083,180.037598 
	C121.900017,181.365738 121.561958,182.693878 121.135788,184.867538 
	C122.269958,185.600143 123.364052,186.877701 124.545692,186.964600 
	C128.292496,187.240082 132.090088,186.842804 135.833618,187.139618 
	C139.399292,187.422333 141.467209,186.261185 142.542984,182.398636 
	C142.641495,181.574631 142.740005,180.750610 143.114548,179.241257 
	C143.841919,176.854767 144.569290,174.468277 145.688812,172.283051 
	C145.688812,172.283051 146.071228,172.063873 146.615509,171.967499 
M239.074539,217.744110 
	C248.566330,217.747055 258.058136,217.754852 267.549927,217.751282 
	C274.413055,217.748703 274.424011,217.741974 274.424438,210.797073 
	C274.427887,154.678375 274.426910,98.559669 274.427185,42.440971 
	C274.427185,41.608356 274.760010,40.526299 274.360687,39.990906 
	C273.258728,38.513493 271.886078,36.145626 270.557343,36.103092 
	C260.243256,35.772938 249.914261,35.915047 239.589905,35.896393 
	C236.680344,35.891136 235.393631,37.260258 235.456528,40.210735 
	C235.804321,56.524052 233.130020,53.944767 248.401321,54.185650 
	C248.567795,54.188278 248.734360,54.183254 248.900879,54.182743 
	C256.183472,54.160385 256.194702,54.160400 256.195312,61.294292 
	C256.199036,104.757141 256.197754,148.220001 256.196899,191.682846 
	C256.196716,199.649460 256.194122,199.649460 248.289764,199.641113 
	C234.134018,199.626175 233.871780,199.864975 235.589478,214.141953 
	C235.741455,215.405319 237.299042,216.499557 239.074539,217.744110 
M75.460960,96.499802 
	C75.460930,97.832901 75.460876,99.166008 75.460876,100.499107 
	C75.460823,137.658218 75.469986,174.817337 75.443161,211.976425 
	C75.441017,214.947235 75.192764,217.775055 79.533134,217.734528 
	C89.863472,217.638031 100.195198,217.669083 110.526283,217.690094 
	C113.266922,217.695679 114.381783,216.450272 114.335983,213.707825 
	C114.055618,196.919571 116.461220,200.011917 101.447556,199.672089 
	C100.947968,199.660767 100.447800,199.677353 99.947914,199.676514 
	C93.588760,199.665680 93.473457,199.571136 93.472603,193.298584 
	C93.466644,149.640793 93.469139,105.983009 93.469666,62.325218 
	C93.469765,54.131382 93.472198,54.215782 101.677788,54.129929 
	C116.449631,53.975372 113.992676,56.100388 114.377518,41.397648 
	C114.488953,37.140465 112.852310,35.875359 108.818611,35.958733 
	C99.492233,36.151505 90.156311,36.151581 80.830009,35.955791 
	C76.699379,35.869076 75.337189,37.365883 75.379395,41.511562 
	C75.562584,59.506050 75.459915,77.503448 75.460960,96.499802 
z"/>
<path fill="#E7E7E7" opacity="1.000000" stroke="none" 
	d="
M238.639160,217.708221 
	C237.299042,216.499557 235.741455,215.405319 235.589478,214.141953 
	C233.871780,199.864975 234.134018,199.626175 248.289764,199.641113 
	C256.194122,199.649460 256.196716,199.649460 256.196899,191.682846 
	C256.197754,148.220001 256.199036,104.757141 256.195312,61.294292 
	C256.194702,54.160400 256.183472,54.160385 248.900879,54.182743 
	C248.734360,54.183254 248.567795,54.188278 248.401321,54.185650 
	C233.130020,53.944767 235.804321,56.524052 235.456528,40.210735 
	C235.393631,37.260258 236.680344,35.891136 239.589905,35.896393 
	C249.914261,35.915047 260.243256,35.772938 270.557343,36.103092 
	C271.886078,36.145626 273.258728,38.513493 274.360687,39.990906 
	C274.760010,40.526299 274.427185,41.608356 274.427185,42.440971 
	C274.426910,98.559669 274.427887,154.678375 274.424438,210.797073 
	C274.424011,217.741974 274.413055,217.748703 267.549927,217.751282 
	C258.058136,217.754852 248.566330,217.747055 238.639160,217.708221 
z"/>
<path fill="#EBEBEB" opacity="1.000000" stroke="none" 
	d="
M75.461060,95.999794 
	C75.459915,77.503448 75.562584,59.506050 75.379395,41.511562 
	C75.337189,37.365883 76.699379,35.869076 80.830009,35.955791 
	C90.156311,36.151581 99.492233,36.151505 108.818611,35.958733 
	C112.852310,35.875359 114.488953,37.140465 114.377518,41.397648 
	C113.992676,56.100388 116.449631,53.975372 101.677788,54.129929 
	C93.472198,54.215782 93.469765,54.131382 93.469666,62.325218 
	C93.469139,105.983009 93.466644,149.640793 93.472603,193.298584 
	C93.473457,199.571136 93.588760,199.665680 99.947914,199.676514 
	C100.447800,199.677353 100.947968,199.660767 101.447556,199.672089 
	C116.461220,200.011917 114.055618,196.919571 114.335983,213.707825 
	C114.381783,216.450272 113.266922,217.695679 110.526283,217.690094 
	C100.195198,217.669083 89.863472,217.638031 79.533134,217.734528 
	C75.192764,217.775055 75.441017,214.947235 75.443161,211.976425 
	C75.469986,174.817337 75.460823,137.658218 75.460876,100.499107 
	C75.460876,99.166008 75.460930,97.832901 75.461060,95.999794 
z"/>
<path fill="#F0F0F0" opacity="1.000000" stroke="none" 
	d="
M228.748993,183.016998 
	C228.788055,183.448807 228.827133,183.880630 228.924683,184.902573 
	C229.000168,185.677750 229.017166,185.862808 229.034180,186.047852 
	C222.868027,186.274399 216.702576,186.543549 210.534378,186.644012 
	C210.057556,186.651764 209.561432,185.473953 209.079285,184.163300 
	C208.645340,182.801514 208.206360,182.123657 207.767395,181.445786 
	C206.202835,176.892105 204.638275,172.338409 203.084259,167.108734 
	C202.472183,165.279770 201.849594,164.126801 201.226990,162.973816 
	C199.673065,158.147202 198.119156,153.320572 196.494034,147.889969 
	C196.038223,146.848328 195.653610,146.410660 195.268997,145.972992 
	C195.197250,145.547379 195.125504,145.121765 195.070267,144.062775 
	C194.456497,142.278702 193.826218,141.128006 193.195923,139.977295 
	C191.834839,135.906708 190.473755,131.836121 189.117386,127.115166 
	C188.695160,125.788658 188.268204,125.112526 187.841263,124.436386 
	C187.568695,123.545036 187.296127,122.653687 187.041702,121.109734 
	C186.992508,119.998695 186.925156,119.540268 186.918304,118.746719 
	C186.383987,117.577133 185.789200,116.742661 185.194412,115.908188 
	C185.194412,115.908188 184.990143,115.507660 185.019043,114.976318 
	C184.442429,113.287781 183.836914,112.130585 183.231400,110.973396 
	C182.490677,108.263954 181.749939,105.554520 181.039383,102.149277 
	C180.481628,100.291077 179.893707,99.128677 179.305786,97.966270 
	C178.489716,94.596008 177.673645,91.225746 177.066956,87.262665 
	C176.459946,84.860283 175.643570,83.050713 174.827194,81.241142 
	C174.363113,81.407913 173.899033,81.574684 173.434952,81.741455 
	C173.276306,82.814735 173.117676,83.888008 172.909424,85.322121 
	C172.954651,86.147812 173.049500,86.612679 173.144348,87.077538 
	C172.156174,90.594215 171.167984,94.110901 169.785309,98.137718 
	C169.315781,99.460167 169.240738,100.272476 169.165680,101.084785 
	C168.392181,103.783005 167.618668,106.481216 166.489990,109.708572 
	C165.827927,111.527252 165.521042,112.816788 165.214142,114.106316 
	C165.214142,114.106316 165.029175,114.518692 164.592072,114.834900 
	C164.059052,115.974403 163.963120,116.797699 163.867188,117.620987 
	C162.944275,120.488556 162.021362,123.356125 160.626312,126.680786 
	C160.053055,127.964180 159.951950,128.790497 159.850830,129.616806 
	C159.587189,130.500961 159.323532,131.385101 158.596405,132.700409 
	C158.023666,133.958328 157.914413,134.785126 157.805176,135.611908 
	C157.350082,137.308273 156.894989,139.004639 156.019241,141.167633 
	C155.459839,142.453781 155.321091,143.273285 155.182343,144.092804 
	C155.071747,144.507294 154.961166,144.921799 154.505707,145.794678 
	C153.833145,147.532440 153.505447,148.811798 153.177750,150.091171 
	C152.391403,152.466034 151.605042,154.840912 150.479523,157.698547 
	C150.045029,158.751801 149.949722,159.322296 149.854401,159.892792 
	C148.838181,162.977966 147.821960,166.063141 146.551086,169.426361 
	C146.296417,169.704422 145.866425,169.893204 145.596817,169.951981 
	C145.317017,170.701096 145.306839,171.391449 145.296661,172.081787 
	C144.569290,174.468277 143.841919,176.854767 142.638657,179.694611 
	C142.081894,180.974060 142.001022,181.800156 141.920151,182.626251 
	C141.467209,186.261185 139.399292,187.422333 135.833618,187.139618 
	C132.090088,186.842804 128.292496,187.240082 124.545692,186.964600 
	C123.364052,186.877701 122.269958,185.600143 121.505554,184.322083 
	C122.198593,182.489685 122.521873,181.202728 122.845154,179.915787 
	C123.585732,177.860031 124.326317,175.804260 125.430847,173.250626 
	C130.506332,159.155090 135.217896,145.557434 139.929443,131.959763 
	C141.878525,126.554718 143.827621,121.149666 146.222626,115.225296 
	C147.690109,112.493904 148.888519,110.344872 149.703552,108.059151 
	C153.929214,96.208534 157.934998,84.277405 162.340759,72.495247 
	C163.062286,70.565651 165.317795,67.960701 166.997406,67.858681 
	C173.588348,67.458336 180.232544,67.934860 186.856964,68.085701 
	C187.553253,69.803787 188.249542,71.521881 188.933365,73.959976 
	C190.880005,80.266876 192.740234,85.891243 194.837845,91.425629 
	C195.969818,94.412193 197.507828,97.244865 198.862640,100.146965 
	C199.543213,102.180405 200.223801,104.213844 200.918762,106.967926 
	C203.806549,115.268593 206.679962,122.848625 209.553391,130.428650 
	C210.200790,132.290070 210.848206,134.151489 211.517578,136.604614 
	C211.996475,137.828384 212.453384,138.460434 212.910294,139.092499 
	C212.978287,139.482925 213.046265,139.873367 213.080963,140.925995 
	C214.435944,145.616547 215.686249,149.699173 217.244370,153.660736 
	C219.668381,159.823822 222.301620,165.904617 224.846176,172.020294 
	C225.545944,174.082962 226.245697,176.145630 226.929214,178.877045 
	C227.524994,180.702866 228.136993,181.859940 228.748993,183.016998 
z"/>
<path fill="#A1A1A1" opacity="1.000000" stroke="none" 
	d="
M186.863434,67.653381 
	C180.232544,67.934860 173.588348,67.458336 166.997406,67.858681 
	C165.317795,67.960701 163.062286,70.565651 162.340759,72.495247 
	C157.934998,84.277405 153.929214,96.208534 149.703552,108.059151 
	C148.888519,110.344872 147.690109,112.493904 146.370483,114.873245 
	C147.789978,109.466881 149.361908,103.843170 151.257996,98.330971 
	C154.374741,89.270172 157.854691,80.332466 160.871918,71.240128 
	C162.272385,67.019890 164.424301,64.968979 169.108658,65.402275 
	C173.379028,65.797279 177.723373,65.328949 182.017365,65.564613 
	C183.660233,65.654778 185.253845,66.642403 186.863434,67.653381 
z"/>
<path fill="#676767" opacity="1.000000" stroke="none" 
	d="
M139.631897,132.122437 
	C135.217896,145.557434 130.506332,159.155090 125.475784,172.883911 
	C125.519806,171.034897 125.606606,168.953217 126.290909,167.091080 
	C130.564438,155.461792 134.971512,143.881577 139.631897,132.122437 
z"/>
<path fill="#727272" opacity="1.000000" stroke="none" 
	d="
M225.072037,171.807007 
	C222.301620,165.904617 219.668381,159.823822 217.244370,153.660736 
	C215.686249,149.699173 214.435944,145.616547 213.172165,141.209137 
	C214.374954,142.739456 215.737457,144.544724 216.481812,146.576477 
	C219.523224,154.877930 222.375793,163.248566 225.072037,171.807007 
z"/>
<path fill="#6C6C6C" opacity="1.000000" stroke="none" 
	d="
M198.993408,99.755188 
	C197.507828,97.244865 195.969818,94.412193 194.837845,91.425629 
	C192.740234,85.891243 190.880005,80.266876 189.042740,74.292145 
	C190.638123,76.920990 192.351074,79.847260 193.532028,82.974426 
	C195.570221,88.371651 197.277847,93.893723 198.993408,99.755188 
z"/>
<path fill="#626262" opacity="1.000000" stroke="none" 
	d="
M209.721832,130.033661 
	C206.679962,122.848625 203.806549,115.268593 201.046295,107.304291 
	C203.341873,111.789772 205.657928,116.605637 207.651825,121.551384 
	C208.691010,124.129013 209.162415,126.935547 209.721832,130.033661 
z"/>
<path fill="#A6A6A6" opacity="1.000000" stroke="none" 
	d="
M172.959030,84.961288 
	C173.117676,83.888008 173.276306,82.814735 173.434952,81.741455 
	C173.899033,81.574684 174.363113,81.407913 174.827194,81.241142 
	C175.643570,83.050713 176.459946,84.860283 177.036423,86.859390 
	C176.796524,87.048920 176.394089,87.183319 176.184265,86.710968 
	C174.969299,85.812836 173.964157,85.387062 172.959030,84.961288 
z"/>
<path fill="#656565" opacity="1.000000" stroke="none" 
	d="
M200.981079,163.131882 
	C201.849594,164.126801 202.472183,165.279770 202.960663,166.760818 
	C202.129410,165.822571 201.432281,164.556259 200.981079,163.131882 
z"/>
<path fill="#656565" opacity="1.000000" stroke="none" 
	d="
M153.480820,150.028793 
	C153.505447,148.811798 153.833145,147.532440 154.479095,146.115967 
	C154.459549,147.308060 154.121719,148.637238 153.480820,150.028793 
z"/>
<path fill="#656565" opacity="1.000000" stroke="none" 
	d="
M192.959869,140.146820 
	C193.826218,141.128006 194.456497,142.278702 194.959686,143.757950 
	C194.129669,142.829788 193.426727,141.573059 192.959869,140.146820 
z"/>
<path fill="#676767" opacity="1.000000" stroke="none" 
	d="
M122.541618,179.976685 
	C122.521873,181.202728 122.198593,182.489685 121.549606,183.899323 
	C121.561958,182.693878 121.900017,181.365738 122.541618,179.976685 
z"/>
<path fill="#656565" opacity="1.000000" stroke="none" 
	d="
M182.987976,111.132950 
	C183.836914,112.130585 184.442429,113.287781 184.920685,114.774170 
	C184.110474,113.833076 183.427505,112.562782 182.987976,111.132950 
z"/>
<path fill="#656565" opacity="1.000000" stroke="none" 
	d="
M165.517090,114.040939 
	C165.521042,112.816788 165.827927,111.527252 166.458206,110.107346 
	C166.461060,111.309837 166.140533,112.642700 165.517090,114.040939 
z"/>
<path fill="#656565" opacity="1.000000" stroke="none" 
	d="
M179.052841,98.116196 
	C179.893707,99.128677 180.481628,100.291077 180.930634,101.778496 
	C180.127777,100.824379 179.463837,99.545250 179.052841,98.116196 
z"/>
<path fill="#727272" opacity="1.000000" stroke="none" 
	d="
M228.956161,182.828934 
	C228.136993,181.859940 227.524994,180.702866 227.036545,179.222992 
	C227.827850,180.147079 228.495590,181.393967 228.956161,182.828934 
z"/>
<path fill="#656565" opacity="1.000000" stroke="none" 
	d="
M172.909424,85.322121 
	C173.964157,85.387062 174.969299,85.812836 176.002350,86.601822 
	C175.309738,87.006866 174.589188,87.048714 173.506500,87.084045 
	C173.049500,86.612679 172.954651,86.147812 172.909424,85.322121 
z"/>
<path fill="#A6A6A6" opacity="1.000000" stroke="none" 
	d="
M185.060547,116.229706 
	C185.789200,116.742661 186.383987,117.577133 186.682632,118.630478 
	C185.966309,118.541527 185.546143,118.233704 185.125946,117.925880 
	C185.059540,117.467667 184.993118,117.009445 185.060547,116.229706 
z"/>
<path fill="#656565" opacity="1.000000" stroke="none" 
	d="
M185.063171,118.260025 
	C185.546143,118.233704 185.966309,118.541527 186.622162,118.965591 
	C186.925156,119.540268 186.992508,119.998695 186.926788,120.779221 
	C186.195953,120.265594 185.598160,119.429878 185.063171,118.260025 
z"/>
<path fill="#ABABAB" opacity="1.000000" stroke="none" 
	d="
M142.231567,182.512451 
	C142.001022,181.800156 142.081894,180.974060 142.500641,180.037292 
	C142.740005,180.750610 142.641495,181.574631 142.231567,182.512451 
z"/>
<path fill="#656565" opacity="1.000000" stroke="none" 
	d="
M145.866425,169.893204 
	C145.866425,169.893204 146.296417,169.704422 146.503510,169.815094 
	C146.678909,170.606339 146.647202,171.286911 146.283173,171.655807 
	C145.922699,170.860474 145.894562,170.376846 145.866425,169.893204 
z"/>
<path fill="#656565" opacity="1.000000" stroke="none" 
	d="
M207.575623,181.739792 
	C208.206360,182.123657 208.645340,182.801514 208.952087,183.785309 
	C208.341187,183.405426 207.862518,182.719620 207.575623,181.739792 
z"/>
<path fill="#ABABAB" opacity="1.000000" stroke="none" 
	d="
M145.596832,169.951981 
	C145.894562,170.376846 145.922699,170.860474 146.011032,171.703995 
	C146.071228,172.063873 145.688812,172.283051 145.492737,172.182419 
	C145.306839,171.391449 145.317017,170.701096 145.596832,169.951981 
z"/>
<path fill="#ABABAB" opacity="1.000000" stroke="none" 
	d="
M160.165695,129.505859 
	C159.951950,128.790497 160.053055,127.964180 160.491638,127.030327 
	C160.712906,127.746826 160.596725,128.570862 160.165695,129.505859 
z"/>
<path fill="#656565" opacity="1.000000" stroke="none" 
	d="
M150.136566,159.953278 
	C149.949722,159.322296 150.045029,158.751801 150.440094,158.078979 
	C150.632828,158.655685 150.525787,159.334732 150.136566,159.953278 
z"/>
<path fill="#656565" opacity="1.000000" stroke="none" 
	d="
M195.025146,146.109528 
	C195.653610,146.410660 196.038223,146.848328 196.300323,147.578247 
	C195.712296,147.329041 195.246780,146.787552 195.025146,146.109528 
z"/>
<path fill="#656565" opacity="1.000000" stroke="none" 
	d="
M155.515747,143.983200 
	C155.321091,143.273285 155.459839,142.453781 155.916351,141.530365 
	C156.105804,142.242172 155.977493,143.057892 155.515747,143.983200 
z"/>
<path fill="#727272" opacity="1.000000" stroke="none" 
	d="
M213.045868,138.804474 
	C212.453384,138.460434 211.996475,137.828384 211.706085,136.927734 
	C212.308868,137.278244 212.745148,137.897339 213.045868,138.804474 
z"/>
<path fill="#ABABAB" opacity="1.000000" stroke="none" 
	d="
M158.124146,135.504822 
	C157.914413,134.785126 158.023666,133.958328 158.469696,133.022797 
	C158.685364,133.741943 158.564255,134.569839 158.124146,135.504822 
z"/>
<path fill="#656565" opacity="1.000000" stroke="none" 
	d="
M187.648026,124.727676 
	C188.268204,125.112526 188.695160,125.788658 188.993118,126.768028 
	C188.394363,126.387154 187.924576,125.703056 187.648026,124.727676 
z"/>
<path fill="#ABABAB" opacity="1.000000" stroke="none" 
	d="
M164.180374,117.507935 
	C163.963120,116.797699 164.059052,115.974403 164.488358,115.035675 
	C164.712341,115.745117 164.602951,116.570000 164.180374,117.507935 
z"/>
<path fill="#656565" opacity="1.000000" stroke="none" 
	d="
M169.496811,100.965164 
	C169.240738,100.272476 169.315781,99.460167 169.692047,98.522690 
	C169.938171,99.213524 169.883057,100.029541 169.496811,100.965164 
z"/>
<path fill="#ABABAB" opacity="1.000000" stroke="none" 
	d="
M229.325684,186.016754 
	C229.017166,185.862808 229.000168,185.677750 229.014450,185.215393 
	C229.236221,185.287277 229.426712,185.636475 229.325684,186.016754 
z"/>
</svg>